<?xml version="1.0" encoding="utf-8"?>
<!-- Generator: Adobe Illustrator 23.0.0, SVG Export Plug-In . SVG Version: 6.00 Build 0)  -->
<svg version="1.1" id="Слой_1" xmlns="http://www.w3.org/2000/svg" xmlns:xlink="http://www.w3.org/1999/xlink" x="0px" y="0px"
	 viewBox="0 0 144 45" enable-background="new 0 0 144 45" xml:space="preserve">
<path fill="#ffffff" d="M1.74,31.79c-0.19,0-0.35-0.06-0.48-0.19s-0.19-0.28-0.19-0.48V13.87c0-0.2,0.06-0.35,0.19-0.48
	c0.12-0.12,0.28-0.19,0.48-0.19h12.19c0.19,0,0.36,0.06,0.49,0.19c0.13,0.12,0.2,0.28,0.2,0.48v2.68c0,0.2-0.07,0.35-0.2,0.48
	c-0.13,0.12-0.3,0.19-0.49,0.19H5.75v3.9h7.65c0.19,0,0.36,0.07,0.49,0.2s0.2,0.3,0.2,0.49v2.66c0,0.18-0.07,0.33-0.2,0.46
	s-0.3,0.2-0.49,0.2H5.75v6c0,0.2-0.06,0.35-0.19,0.48s-0.28,0.19-0.48,0.19H1.74z M25.24,32.06c-1.59,0-2.99-0.26-4.18-0.78
	c-1.2-0.52-2.12-1.33-2.77-2.42c-0.66-1.09-0.98-2.47-0.98-4.16V13.87c0-0.2,0.06-0.35,0.19-0.48c0.12-0.12,0.28-0.19,0.48-0.19
	h3.43c0.19,0,0.35,0.06,0.48,0.19c0.12,0.12,0.19,0.28,0.19,0.48v10.81c0,1.15,0.28,2.01,0.84,2.59s1.34,0.86,2.35,0.86
	c0.99,0,1.77-0.29,2.32-0.86s0.84-1.44,0.84-2.59V13.87c0-0.2,0.07-0.35,0.2-0.48c0.13-0.12,0.29-0.19,0.46-0.19h3.45
	c0.18,0,0.33,0.06,0.46,0.19c0.13,0.12,0.2,0.28,0.2,0.48V24.7c0,1.68-0.33,3.07-0.98,4.16c-0.66,1.09-1.58,1.89-2.76,2.42
	C28.25,31.8,26.85,32.06,25.24,32.06z M44.33,32.06c-1.68,0-3.12-0.27-4.32-0.82c-1.19-0.55-2.12-1.35-2.79-2.42
	c-0.66-1.06-1.03-2.38-1.1-3.96c-0.02-0.73-0.03-1.5-0.03-2.34s0.01-1.63,0.03-2.39c0.07-1.54,0.44-2.85,1.12-3.92
	c0.67-1.07,1.61-1.88,2.81-2.44c1.2-0.56,2.63-0.84,4.28-0.84c1.17,0,2.25,0.15,3.24,0.44c0.99,0.29,1.86,0.72,2.6,1.27
	c0.74,0.56,1.32,1.23,1.74,2.02c0.42,0.79,0.63,1.68,0.65,2.67c0.02,0.16-0.03,0.29-0.15,0.4c-0.12,0.11-0.25,0.16-0.41,0.16h-3.58
	c-0.23,0-0.41-0.05-0.53-0.15c-0.12-0.1-0.23-0.28-0.32-0.54c-0.25-0.94-0.65-1.58-1.21-1.92c-0.56-0.35-1.24-0.52-2.06-0.52
	c-0.97,0-1.74,0.27-2.31,0.81c-0.57,0.54-0.88,1.44-0.93,2.7c-0.05,1.45-0.05,2.94,0,4.46c0.05,1.26,0.36,2.16,0.93,2.7
	c0.57,0.54,1.34,0.81,2.31,0.81c0.81,0,1.5-0.18,2.07-0.53c0.57-0.35,0.96-0.99,1.19-1.91c0.07-0.27,0.17-0.45,0.31-0.54
	c0.13-0.1,0.31-0.15,0.54-0.15h3.58c0.16,0,0.3,0.05,0.41,0.16c0.11,0.11,0.16,0.24,0.15,0.4c-0.02,0.99-0.23,1.88-0.65,2.67
	c-0.42,0.79-1,1.46-1.74,2.02c-0.74,0.56-1.61,0.98-2.6,1.27C46.58,31.91,45.5,32.06,44.33,32.06z M56.01,31.79
	c-0.19,0-0.35-0.06-0.48-0.19s-0.19-0.28-0.19-0.48V13.87c0-0.2,0.06-0.35,0.19-0.48c0.12-0.12,0.28-0.19,0.48-0.19h3.35
	c0.19,0,0.35,0.06,0.48,0.19c0.12,0.12,0.19,0.28,0.19,0.48v5.89l4.91-6.05c0.07-0.11,0.19-0.22,0.36-0.33
	c0.17-0.12,0.39-0.17,0.68-0.17h3.82c0.16,0,0.29,0.06,0.4,0.17c0.11,0.12,0.16,0.24,0.16,0.38c0,0.12-0.04,0.23-0.11,0.32
	L63.9,22.1l6.85,8.82c0.07,0.07,0.11,0.18,0.11,0.32s-0.06,0.27-0.17,0.38c-0.12,0.12-0.24,0.17-0.39,0.17h-3.96
	c-0.32,0-0.56-0.07-0.73-0.21c-0.17-0.14-0.28-0.25-0.33-0.32l-5.26-6.56v6.43c0,0.2-0.06,0.35-0.19,0.48s-0.28,0.19-0.48,0.19
	H56.01z M80.52,32.06c-1.63,0-3.04-0.27-4.25-0.8s-2.14-1.33-2.81-2.4c-0.67-1.07-1.04-2.41-1.12-4.02
	c-0.02-0.76-0.03-1.52-0.03-2.28c0-0.76,0.01-1.53,0.03-2.31c0.07-1.59,0.45-2.93,1.13-4.02c0.68-1.09,1.62-1.91,2.83-2.46
	c1.2-0.55,2.61-0.82,4.22-0.82c1.59,0,3,0.27,4.21,0.82s2.16,1.37,2.86,2.46c0.69,1.09,1.06,2.43,1.12,4.02
	c0.04,0.78,0.05,1.55,0.05,2.31c0,0.76-0.02,1.52-0.05,2.28c-0.07,1.61-0.44,2.95-1.12,4.02c-0.67,1.07-1.61,1.87-2.81,2.4
	C83.57,31.79,82.15,32.06,80.52,32.06z M80.52,28.24c0.94,0,1.71-0.28,2.3-0.85c0.59-0.57,0.91-1.47,0.94-2.71
	c0.04-0.78,0.05-1.51,0.05-2.2s-0.02-1.41-0.05-2.15c-0.04-0.83-0.19-1.51-0.46-2.03c-0.28-0.52-0.65-0.91-1.13-1.16
	c-0.48-0.25-1.03-0.37-1.65-0.37c-0.6,0-1.14,0.12-1.62,0.37c-0.48,0.25-0.86,0.63-1.14,1.16c-0.28,0.52-0.44,1.2-0.48,2.03
	c-0.02,0.74-0.03,1.46-0.03,2.15s0.01,1.42,0.03,2.2c0.05,1.24,0.37,2.14,0.96,2.71C78.82,27.95,79.59,28.24,80.52,28.24z
	 M92.5,31.79c-0.2,0-0.35-0.06-0.48-0.19c-0.12-0.12-0.19-0.28-0.19-0.48V13.87c0-0.2,0.06-0.35,0.19-0.48
	c0.12-0.12,0.28-0.19,0.48-0.19h7.44c1.47,0,2.75,0.23,3.84,0.68c1.09,0.45,1.94,1.13,2.55,2.03c0.61,0.9,0.92,2.04,0.92,3.43
	c0,1.36-0.3,2.49-0.92,3.37c-0.61,0.89-1.46,1.54-2.55,1.97c-1.09,0.42-2.37,0.64-3.84,0.64h-3.16v5.82c0,0.2-0.07,0.35-0.2,0.48
	s-0.3,0.19-0.49,0.19H92.5z M96.69,21.65h3.11c0.76,0,1.37-0.2,1.82-0.58c0.45-0.39,0.68-0.98,0.68-1.78c0-0.67-0.2-1.24-0.58-1.7
	c-0.39-0.46-1.03-0.69-1.91-0.69h-3.11V21.65z M110.45,31.79c-0.2,0-0.35-0.06-0.48-0.19c-0.12-0.12-0.19-0.28-0.19-0.48V13.87
	c0-0.2,0.06-0.35,0.19-0.48c0.12-0.12,0.28-0.19,0.48-0.19h12.4c0.2,0,0.35,0.06,0.48,0.19c0.12,0.12,0.19,0.28,0.19,0.48v2.5
	c0,0.19-0.06,0.35-0.19,0.48s-0.28,0.19-0.48,0.19h-8.47v3.58h7.89c0.2,0,0.35,0.07,0.48,0.2c0.12,0.13,0.19,0.3,0.19,0.49v2.31
	c0,0.18-0.06,0.33-0.19,0.46c-0.12,0.13-0.28,0.2-0.48,0.2h-7.89v3.69h8.68c0.19,0,0.35,0.06,0.48,0.19s0.19,0.28,0.19,0.48v2.5
	c0,0.2-0.06,0.35-0.19,0.48s-0.28,0.19-0.48,0.19H110.45z M125.77,31.79c-0.16,0-0.3-0.06-0.41-0.17c-0.12-0.11-0.17-0.24-0.17-0.38
	c0-0.05,0.01-0.11,0.03-0.16c0.02-0.05,0.04-0.11,0.08-0.16l5.79-8.6l-5.36-8.23c-0.05-0.11-0.08-0.21-0.08-0.32
	c0-0.14,0.05-0.27,0.16-0.38c0.11-0.12,0.24-0.17,0.4-0.17h3.85c0.27,0,0.47,0.07,0.61,0.2s0.24,0.25,0.29,0.36l3.19,4.83l3.21-4.83
	c0.07-0.11,0.18-0.23,0.32-0.36s0.34-0.2,0.61-0.2h3.64c0.16,0,0.3,0.06,0.41,0.17s0.17,0.24,0.17,0.38c0,0.12-0.04,0.23-0.11,0.32
	L137,22.29l5.84,8.63c0.04,0.05,0.06,0.11,0.07,0.16c0.01,0.05,0.01,0.11,0.01,0.16c0,0.14-0.05,0.27-0.16,0.38
	c-0.11,0.12-0.24,0.17-0.4,0.17h-3.96c-0.27,0-0.47-0.07-0.62-0.2s-0.25-0.24-0.3-0.33l-3.53-5.1l-3.45,5.1
	c-0.05,0.09-0.15,0.2-0.29,0.33s-0.34,0.2-0.61,0.2H125.77z"/>
</svg>
